HIERARCHY
ROOT Hips
{
  OFFSET -684.192 93.0447 1098.75
  CHANNELS 6 Xposition Yposition Zposition Zrotation Xrotation Yrotation
  JOINT Spine
  {
    OFFSET 0 8 0
    CHANNELS 6 Xposition Yposition Zposition Zrotation Xrotation Yrotation
    JOINT Spine1
    {
      OFFSET 0.00033437 8 -0.000289892
      CHANNELS 6 Xposition Yposition Zposition Zrotation Xrotation Yrotation
      JOINT Spine2
      {
        OFFSET 8.61524e-05 8 6.34626e-05
        CHANNELS 6 Xposition Yposition Zposition Zrotation Xrotation Yrotation
        JOINT Spine3
        {
          OFFSET 0 8 0
          CHANNELS 6 Xposition Yposition Zposition Zrotation Xrotation Yrotation
          JOINT Neck
          {
            OFFSET -1.73888e-05 17 -6.51181e-05
            CHANNELS 6 Xposition Yposition Zposition Zrotation Xrotation Yrotation
            JOINT Head
            {
              OFFSET -6.12997e-05 10.8 3.78953e-05
              CHANNELS 6 Xposition Yposition Zposition Zrotation Xrotation Yrotation
              End Site
              {
                OFFSET 0 20.25 0
              }
            }
          }
          JOINT LeftShoulder
          {
            OFFSET 4.99995 17 2.99681e-05
            CHANNELS 6 Xposition Yposition Zposition Zrotation Xrotation Yrotation
            JOINT LeftShoulder2
            {
              OFFSET 6.45 0 0
              CHANNELS 6 Xposition Yposition Zposition Zrotation Xrotation Yrotation
              JOINT LeftArm
              {
                OFFSET 6.45003 1.88005e-05 -0.000109165
                CHANNELS 6 Xposition Yposition Zposition Zrotation Xrotation Yrotation
                JOINT LeftForeArm
                {
                  OFFSET -0.000197672 -32.4 -2.00001
                  CHANNELS 6 Xposition Yposition Zposition Zrotation Xrotation Yrotation
                  JOINT LeftHand
                  {
                    OFFSET 0.000517873 -25.6506 2.00045
                    CHANNELS 6 Xposition Yposition Zposition Zrotation Xrotation Yrotation
                    JOINT LeftHandThumb1
                    {
                      OFFSET -0.500108 -1.49984 2.64995
                      CHANNELS 6 Xposition Yposition Zposition Zrotation Xrotation Yrotation
                      JOINT LeftHandThumb2
                      {
                        OFFSET 0 -3.8 3.70005
                        CHANNELS 6 Xposition Yposition Zposition Zrotation Xrotation Yrotation
                        JOINT LeftHandThumb3
                        {
                          OFFSET 0.000100951 -3.0008 2.70046
                          CHANNELS 6 Xposition Yposition Zposition Zrotation Xrotation Yrotation
                          End Site
                          {
                            OFFSET 0.000610429 -2.30076 1.80105
                          }
                        }
                      }
                    }
                    JOINT LeftHandIndex
                    {
                      OFFSET 3.5803e-05 -1.90044 1.59988
                      CHANNELS 6 Xposition Yposition Zposition Zrotation Xrotation Yrotation
                      JOINT LeftHandIndex1
                      {
                        OFFSET 0.000220252 -8.29995 1.90004
                        CHANNELS 6 Xposition Yposition Zposition Zrotation Xrotation Yrotation
                        JOINT LeftHandIndex2
                        {
                          OFFSET -5.11541e-05 -4.4998 0.000676116
                          CHANNELS 6 Xposition Yposition Zposition Zrotation Xrotation Yrotation
                          JOINT LeftHandIndex3
                          {
                            OFFSET 0.000353005 -3.40053 0.00664006
                            CHANNELS 6 Xposition Yposition Zposition Zrotation Xrotation Yrotation
                            End Site
                            {
                              OFFSET 0 -2.60003 0
                            }
                          }
                        }
                      }
                    }
                    JOINT LeftHandMiddle
                    {
                      OFFSET -0.251991 -2.20096 0.399622
                      CHANNELS 6 Xposition Yposition Zposition Zrotation Xrotation Yrotation
                      JOINT LeftHandMiddle1
                      {
                        OFFSET 2.65807e-05 -8.29957 1.00014
                        CHANNELS 6 Xposition Yposition Zposition Zrotation Xrotation Yrotation
                        JOINT LeftHandMiddle2
                        {
                          OFFSET 0.000499344 -4.65035 7.74874e-05
                          CHANNELS 6 Xposition Yposition Zposition Zrotation Xrotation Yrotation
                          JOINT LeftHandMiddle3
                          {
                            OFFSET -2.87651e-05 -3.29996 3.12535e-05
                            CHANNELS 6 Xposition Yposition Zposition Zrotation Xrotation Yrotation
                            End Site
                            {
                              OFFSET -0.000699131 -2.70022 0.00283907
                            }
                          }
                        }
                      }
                    }
                    JOINT LeftHandRing
                    {
                      OFFSET -0.500408 -2.14766 -0.802241
                      CHANNELS 6 Xposition Yposition Zposition Zrotation Xrotation Yrotation
                      JOINT LeftHandRing1
                      {
                        OFFSET -3.11073e-05 -7.75011 -0.199913
                        CHANNELS 6 Xposition Yposition Zposition Zrotation Xrotation Yrotation
                        JOINT LeftHandRing2
                        {
                          OFFSET 0.000846771 -3.80059 0.000348048
                          CHANNELS 6 Xposition Yposition Zposition Zrotation Xrotation Yrotation
                          JOINT LeftHandRing3
                          {
                            OFFSET -0.000273422 -3.40034 5.5156e-05
                            CHANNELS 6 Xposition Yposition Zposition Zrotation Xrotation Yrotation
                            End Site
                            {
                              OFFSET 0.000378178 -2.59974 -1.44348e-05
                            }
                          }
                        }
                      }
                    }
                    JOINT LeftHandPinky
                    {
                      OFFSET -0.750365 -1.7505 -1.85013
                      CHANNELS 6 Xposition Yposition Zposition Zrotation Xrotation Yrotation
                      JOINT LeftHandPinky1
                      {
                        OFFSET -0.000127337 -7.15008 -0.999983
                        CHANNELS 6 Xposition Yposition Zposition Zrotation Xrotation Yrotation
                        JOINT LeftHandPinky2
                        {
                          OFFSET -0.000400453 -2.99915 -0.00227459
                          CHANNELS 6 Xposition Yposition Zposition Zrotation Xrotation Yrotation
                          JOINT LeftHandPinky3
                          {
                            OFFSET -0.00027476 -2.35059 -0.000140155
                            CHANNELS 6 Xposition Yposition Zposition Zrotation Xrotation Yrotation
                            End Site
                            {
                              OFFSET 4.72478e-05 -2.10001 6.74044e-05
                            }
                          }
                        }
                      }
                    }
                  }
                }
              }
            }
          }
          JOINT RightShoulder
          {
            OFFSET -5.00001 17 -1.53481e-05
            CHANNELS 6 Xposition Yposition Zposition Zrotation Xrotation Yrotation
            JOINT RightShoulder2
            {
              OFFSET -6.45 0 0
              CHANNELS 6 Xposition Yposition Zposition Zrotation Xrotation Yrotation
              JOINT RightArm
              {
                OFFSET -6.45002 9.67054e-05 0
                CHANNELS 6 Xposition Yposition Zposition Zrotation Xrotation Yrotation
                JOINT RightForeArm
                {
                  OFFSET -4.35872e-05 -32.4 -1.99994
                  CHANNELS 6 Xposition Yposition Zposition Zrotation Xrotation Yrotation
                  JOINT RightHand
                  {
                    OFFSET 4.14331e-05 -25.6499 2.00023
                    CHANNELS 6 Xposition Yposition Zposition Zrotation Xrotation Yrotation
                    JOINT RightHandThumb1
                    {
                      OFFSET 0.500323 -1.49956 2.65058
                      CHANNELS 6 Xposition Yposition Zposition Zrotation Xrotation Yrotation
                      JOINT RightHandThumb2
                      {
                        OFFSET -2.05609e-05 -3.79996 3.70006
                        CHANNELS 6 Xposition Yposition Zposition Zrotation Xrotation Yrotation
                        JOINT RightHandThumb3
                        {
                          OFFSET 0.000193583 -3.00015 2.69997
                          CHANNELS 6 Xposition Yposition Zposition Zrotation Xrotation Yrotation
                          End Site
                          {
                            OFFSET -7.42433e-05 -2.30006 1.8
                          }
                        }
                      }
                    }
                    JOINT RightHandIndex
                    {
                      OFFSET 0.000260947 -1.89907 1.59982
                      CHANNELS 6 Xposition Yposition Zposition Zrotation Xrotation Yrotation
                      JOINT RightHandIndex1
                      {
                        OFFSET -0.000160417 -8.29977 1.90058
                        CHANNELS 6 Xposition Yposition Zposition Zrotation Xrotation Yrotation
                        JOINT RightHandIndex2
                        {
                          OFFSET -9.27229e-05 -4.50005 0
                          CHANNELS 6 Xposition Yposition Zposition Zrotation Xrotation Yrotation
                          JOINT RightHandIndex3
                          {
                            OFFSET -0.00114153 -3.40127 -0.0010762
                            CHANNELS 6 Xposition Yposition Zposition Zrotation Xrotation Yrotation
                            End Site
                            {
                              OFFSET -0.000284089 -2.5999 -0.000546799
                            }
                          }
                        }
                      }
                    }
                    JOINT RightHandMiddle
                    {
                      OFFSET 0.250574 -2.20005 0.399724
                      CHANNELS 6 Xposition Yposition Zposition Zrotation Xrotation Yrotation
                      JOINT RightHandMiddle1
                      {
                        OFFSET 0.000267832 -8.29883 1.00165
                        CHANNELS 6 Xposition Yposition Zposition Zrotation Xrotation Yrotation
                        JOINT RightHandMiddle2
                        {
                          OFFSET 0.000558717 -4.65029 0.000107919
                          CHANNELS 6 Xposition Yposition Zposition Zrotation Xrotation Yrotation
                          JOINT RightHandMiddle3
                          {
                            OFFSET -0.00101667 -3.30113 0.00021824
                            CHANNELS 6 Xposition Yposition Zposition Zrotation Xrotation Yrotation
                            End Site
                            {
                              OFFSET 0.00092643 -2.69997 0.00393367
                            }
                          }
                        }
                      }
                    }
                    JOINT RightHandRing
                    {
                      OFFSET 0.499808 -2.15022 -0.800187
                      CHANNELS 6 Xposition Yposition Zposition Zrotation Xrotation Yrotation
                      JOINT RightHandRing1
                      {
                        OFFSET -6.6048e-05 -7.74985 -0.199923
                        CHANNELS 6 Xposition Yposition Zposition Zrotation Xrotation Yrotation
                        JOINT RightHandRing2
                        {
                          OFFSET -0.000373123 -3.79987 0.000106985
                          CHANNELS 6 Xposition Yposition Zposition Zrotation Xrotation Yrotation
                          JOINT RightHandRing3
                          {
                            OFFSET -0.000759714 -3.40087 0.000514304
                            CHANNELS 6 Xposition Yposition Zposition Zrotation Xrotation Yrotation
                            End Site
                            {
                              OFFSET -0.000194962 -2.60017 -0.000521086
                            }
                          }
                        }
                      }
                    }
                    JOINT RightHandPinky
                    {
                      OFFSET 0.750726 -1.74997 -1.85007
                      CHANNELS 6 Xposition Yposition Zposition Zrotation Xrotation Yrotation
                      JOINT RightHandPinky1
                      {
                        OFFSET 7.84429e-05 -7.15005 -0.999067
                        CHANNELS 6 Xposition Yposition Zposition Zrotation Xrotation Yrotation
                        JOINT RightHandPinky2
                        {
                          OFFSET 0.00174369 -3.0005 -0.000119709
                          CHANNELS 6 Xposition Yposition Zposition Zrotation Xrotation Yrotation
                          JOINT RightHandPinky3
                          {
                            OFFSET -0.000397271 -2.34998 -4.99548e-05
                            CHANNELS 6 Xposition Yposition Zposition Zrotation Xrotation Yrotation
                            End Site
                            {
                              OFFSET 0.000178339 -2.09967 -0.00010683
                            }
                          }
                        }
                      }
                    }
                  }
                }
              }
            }
          }
        }
      }
    }
  }
  JOINT LeftUpLeg
  {
    OFFSET 7.99997 0 6.25295e-05
    CHANNELS 6 Xposition Yposition Zposition Zrotation Xrotation Yrotation
    JOINT LeftLeg
    {
      OFFSET 8.9848e-05 -45.0001 -0.99982
      CHANNELS 6 Xposition Yposition Zposition Zrotation Xrotation Yrotation
      JOINT LeftFoot
      {
        OFFSET -0.000345011 -40.9998 -1.99965
        CHANNELS 6 Xposition Yposition Zposition Zrotation Xrotation Yrotation
        JOINT LeftToeBase
        {
          OFFSET 0.00065066 -7.50012 12.4999
          CHANNELS 6 Xposition Yposition Zposition Zrotation Xrotation Yrotation
          JOINT LeftFootToe
          {
            OFFSET 0 0 4
            CHANNELS 6 Xposition Yposition Zposition Zrotation Xrotation Yrotation
            End Site
            {
              OFFSET 0 0 0
            }
          }
        }
      }
    }
  }
  JOINT RightUpLeg
  {
    OFFSET -7.99997 0 -6.25295e-05
    CHANNELS 6 Xposition Yposition Zposition Zrotation Xrotation Yrotation
    JOINT RightLeg
    {
      OFFSET 0.000214178 -45 -1.00016
      CHANNELS 6 Xposition Yposition Zposition Zrotation Xrotation Yrotation
      JOINT RightFoot
      {
        OFFSET 2.87967e-05 -41 -1.99997
        CHANNELS 6 Xposition Yposition Zposition Zrotation Xrotation Yrotation
        JOINT RightToeBase
        {
          OFFSET -0.000812157 -7.5 12.5006
          CHANNELS 6 Xposition Yposition Zposition Zrotation Xrotation Yrotation
          JOINT RightFootToe
          {
            OFFSET 0 0 4
            CHANNELS 6 Xposition Yposition Zposition Zrotation Xrotation Yrotation
            End Site
            {
              OFFSET 0 0 0
            }
          }
        }
      }
    }
  }
}
MOTION
Frames:	3
Frame Time:	0.0111111
-675.115 93.0891 1090.89 -1.54809 -1.7051 -137.552 0 8 -2.27374e-13 -3.41652 7.41998 4.33356 2.27374e-13 8 -5.68434e-14 -0.281774 0.785283 2.38651 0 8 -5.68434e-14 -0.13676 0.394154 1.19288 0 8 -5.68434e-14 -0.136976 0.394008 1.19205 0 17 -2.27374e-13 -1.40561 2.44494 15.568 2.27374e-13 10.8 1.7053e-13 -1.82338 -5.72143 36.5894 5 17 -1.7053e-13 -5.88979 6.46641 -3.30767 6.45 0 5.68434e-14 -0.72099 0.530989 -0.297471 6.45 -5.68434e-14 0 34.4145 -19.3569 67.3959 1.13687e-13 -32.4 -2 -59.1994 -36.6209 -26.6424 0 -25.65 2 36.5943 47.4594 -10.8657 -0.5 -1.5 2.65 -23.9526 -45.9397 -18.8057 0 -3.8 3.7 0.794205 2.66318 0.643851 2.27374e-13 -3 2.7 0.055794 40.4668 -0.0246715 1.13687e-13 -1.9 1.6 1.6865e-06 -1.86909e-06 -3.83195e-07 -2.27374e-13 -8.3 1.9 -2.2384 -9.8182 -0.226574 0 -4.5 2.27374e-13 -0.00747723 -0.0551853 1.14886e-05 -2.27374e-13 -3.4 0 1.4301e-05 0.0214008 6.22692e-06 -0.25 -2.2 0.4 1.6865e-06 -1.86909e-06 -3.83195e-07 0 -8.3 1 -11.0948 15.7456 2.26713 1.13687e-13 -4.65 0 -74.2323 18.828 -0.276593 9.9476e-14 -3.3 1.7053e-13 -89.876 -0.0104594 0.00617684 -0.5 -2.15 -0.8 1.6865e-06 -1.86909e-06 -3.83195e-07 0 -7.75 -0.2 -8.82995 8.69227 1.21635 2.27374e-13 -3.8 0 -0.0312464 -0.966139 0.299262 -1.13687e-13 -3.4 0 -19.8116 -0.0335019 0.0285138 -0.75 -1.75 -1.85 1.6865e-06 -1.86909e-06 -3.83195e-07 2.27374e-13 -7.15 -1 -34.809 -9.35428 -1.1941 1.13687e-13 -3 0 -0.0954489 -0.051496 -0.0443393 0 -2.35 0 0.000117997 0.126537 -0.043966 -5 17 -1.13687e-13 3.71853 11.1422 6.66755 -6.45 5.68434e-14 0 -0.887176 -0.71916 -2.3843 -6.45 0 1.13687e-13 -44.3478 26.4826 -33.158 0 -32.4 -2 62.7459 -58.7616 68.9925 0 -25.65 2 2.72143 -27.6287 32.5664 0.5 -1.5 2.65 53.1157 39.4663 157.885 -1.13687e-13 -3.8 3.7 0.563171 -2.57049 -0.39031 0 -3 2.7 0.128363 23.402 -0.114956 0 -1.9 1.6 -2.5996e-06 -6.09467e-07 3.67161e-06 8.52651e-14 -8.3 1.9 0.914417 8.09687 -0.10073 8.52651e-14 -4.5 0 25.5762 11.3722 0.473271 1.13687e-13 -3.4 0 22.2244 0.00463896 0.00358665 0.25 -2.2 0.4 -2.5996e-06 -6.09467e-07 3.67161e-06 -8.52651e-14 -8.3 1 13.4108 20.6832 -3.39784 0 -4.65 -1.13687e-13 31.1506 9.70039 0.229555 0 -3.3 -1.13687e-13 24.3878 0.00354989 -0.0132965 0.5 -2.15 -0.8 -2.5996e-06 -6.09467e-07 3.67161e-06 -5.68434e-14 -7.75 -0.2 40.8189 20.0825 -10.0137 0 -3.8 2.27374e-13 32.0862 20.7051 2.05516 -1.13687e-13 -3.4 2.27374e-13 30.3102 -0.0343716 0.00621754 0.75 -1.75 -1.85 -2.5996e-06 -6.09467e-07 3.67161e-06 0 -7.15 -1 60.7507 16.6258 -14.7799 0 -3 0 20.4377 20.1823 3.18219 0 -2.35 0 27.0642 -0.0396129 0.0160351 8 -7.10543e-15 -5.68434e-14 0.866169 -2.84578 3.73571 -2.27374e-13 -45 -1 -2.99167 2.88015 1.76183 0 -41 -2 0.0018604 -0.051517 -24.4208 0 -7.5 12.5 -0.00617746 -0.00309886 0.00849529 -4.54747e-13 2.8394e-14 4 0.919548 3.43246 25.1157 -8 -1.42109e-14 -1.13687e-13 -5.01188 -1.58306 -15.316 0 -45 -1 -10.4774 2.17399 -0.397167 0 -41 -2 12.8917 0.969155 -11.2593 -1.13687e-13 -7.5 12.5 -0.000830315 -0.00212229 -0.00143281 0 1.77636e-15 4 -8.3538 2.68264 29.7827 
-675.347 93.134 1091.07 -1.3174 -1.50435 -137.604 0 8 0 -3.15279 7.41392 4.38609 0 8 -1.7053e-13 -0.28932 0.751981 2.41284 0 8 -5.68434e-14 -0.140661 0.377553 1.20606 0 8 -1.13687e-13 -0.140601 0.377369 1.20591 0 17 -1.13687e-13 -1.42606 2.51481 15.5539 4.54747e-13 10.8 0 -1.83371 -5.61785 36.55 5 17 -1.7053e-13 -5.93845 6.54223 -3.34935 6.45 5.68434e-14 1.13687e-13 -0.703787 0.540579 -0.29415 6.45 0 -5.68434e-14 34.3706 -19.3689 67.4608 0 -32.4 -2 -59.4408 -36.654 -26.8695 2.27374e-13 -25.65 2 37.1824 47.3133 -11.2842 -0.5 -1.5 2.65 -24.046 -45.9937 -18.8062 0 -3.8 3.7 0.786396 2.61553 0.638834 0 -3 2.7 0.0558522 40.5697 -0.0247094 1.13687e-13 -1.9 1.6 1.6865e-06 -1.86909e-06 -3.83195e-07 -3.41061e-13 -8.3 1.9 -2.19555 -9.67056 -0.22094 0 -4.5 0 -0.00747723 -0.0551853 1.14886e-05 2.27374e-13 -3.4 3.41061e-13 1.4301e-05 0.0214008 6.22692e-06 -0.25 -2.2 0.4 1.6865e-06 -1.86909e-06 -3.83195e-07 0 -8.3 1 -10.8675 14.95 2.12563 1.13687e-13 -4.65 0 -73.5964 17.8292 -0.244346 9.9476e-14 -3.3 2.27374e-13 -90.0244 -0.0104594 -0.00214494 -0.5 -2.15 -0.8 1.6865e-06 -1.86909e-06 -3.83195e-07 -1.13687e-13 -7.75 -0.2 -8.89001 7.9303 1.15377 2.27374e-13 -3.8 1.13687e-13 -0.0296107 -0.897886 0.246063 0 -3.4 1.13687e-13 -18.7624 -0.0177578 0.0262155 -0.75 -1.75 -1.85 1.6865e-06 -1.86909e-06 -3.83195e-07 1.13687e-13 -7.15 -1 -33.5737 -9.52109 -1.23995 1.13687e-13 -3 0 -0.0954489 -0.051496 -0.0443393 0 -2.35 1.13687e-13 0.000117997 0.126537 -0.043966 -5 17 -5.68434e-14 3.69966 11.1964 6.67784 -6.45 0 2.27374e-13 -0.885223 -0.7215 -2.3432 -6.45 -1.13687e-13 5.68434e-14 -44.6758 26.3983 -32.9609 -5.68434e-14 -32.4 -2 62.8389 -58.5695 68.987 -1.13687e-13 -25.65 2 2.9525 -27.993 32.2958 0.5 -1.5 2.65 53.0139 39.7079 157.57 0 -3.8 3.7 0.563171 -2.57049 -0.39031 0 -3 2.7 0.127428 22.9728 -0.114588 5.68434e-14 -1.9 1.6 -2.5996e-06 -6.09467e-07 3.67161e-06 5.68434e-14 -8.3 1.9 0.889284 7.99949 -0.0964815 -5.68434e-14 -4.5 2.27374e-13 26.1296 11.6813 0.503052 0 -3.4 0 22.6326 0.00752688 0.00358665 0.25 -2.2 0.4 -2.5996e-06 -6.09467e-07 3.67161e-06 -5.68434e-14 -8.3 1 13.543 20.8912 -3.46155 0 -4.65 0 30.7523 9.53972 0.222103 0 -3.3 0 24.1225 0.00354989 -0.0132965 0.5 -2.15 -0.8 -2.5996e-06 -6.09467e-07 3.67161e-06 -5.68434e-14 -7.75 -0.2 41.5331 20.0534 -10.1994 0 -3.8 -2.27374e-13 30.6477 19.1962 1.72857 1.13687e-13 -3.4 -1.13687e-13 28.7781 -0.0334375 0.00081829 0.75 -1.75 -1.85 -2.5996e-06 -6.09467e-07 3.67161e-06 2.84217e-14 -7.15 -1 61.6943 16.3633 -14.9578 0 -3 2.27374e-13 19.4479 18.6888 2.66632 1.13687e-13 -2.35 0 25.5208 -0.0363095 0.00864059 8 0 0 1.03694 -2.87704 3.70267 0 -45 -1 -3.04756 2.94919 1.76513 0 -41 -2 0.18546 -0.114633 -24.6163 0 -7.5 12.5 -0.00617746 -0.00309886 0.00849529 -2.27374e-13 2.84217e-14 4 0.795084 3.35194 24.9869 -8 -1.42109e-14 -5.68434e-14 -4.3756 -1.42094 -15.466 0 -45 -1 -10.5251 2.17843 -0.369533 2.27374e-13 -41 -2 12.6925 0.827744 -10.6951 0 -7.5 12.5 -0.000830315 -0.00212229 -0.00143281 1.13687e-13 -3.55271e-15 4 -8.30175 2.88038 29.7779 
-675.557 93.1752 1091.24 -1.11493 -1.33015 -137.671 0 8 -5.68434e-14 -2.92388 7.40671 4.44827 -2.27374e-13 8 5.68434e-14 -0.29674 0.72173 2.44169 -2.27374e-13 8 5.68434e-14 -0.144499 0.362441 1.2205 0 8 -1.7053e-13 -0.144355 0.362363 1.22012 0 17 -1.7053e-13 -1.44646 2.58229 15.5431 0 10.8 5.68434e-14 -1.85095 -5.51479 36.5206 5 17 -1.13687e-13 -5.99506 6.61205 -3.40205 6.45 0 2.27374e-13 -0.686904 0.548665 -0.293306 6.45 -5.68434e-14 -5.68434e-14 34.3384 -19.3813 67.5258 0 -32.4 -2 -59.6883 -36.6944 -27.086 0 -25.65 2 37.7292 47.1959 -11.5608 -0.5 -1.5 2.65 -24.2262 -46.0256 -18.8687 0 -3.8 3.7 0.780505 2.58057 0.635381 0 -3 2.7 0.0559032 40.6592 -0.0247425 -1.13687e-13 -1.9 1.6 1.6865e-06 -1.86909e-06 -3.83195e-07 -2.27374e-13 -8.3 1.9 -2.15988 -9.54471 -0.216259 2.27374e-13 -4.5 1.13687e-13 -0.00747723 -0.0551853 1.14886e-05 0 -3.4 2.27374e-13 1.4301e-05 0.0214008 6.22692e-06 -0.25 -2.2 0.4 1.6865e-06 -1.86909e-06 -3.83195e-07 -1.13687e-13 -8.3 1 -10.7459 14.4117 2.03542 0 -4.65 1.13687e-13 -73.1768 17.2556 -0.226943 1.27898e-13 -3.3 5.68434e-14 -90.0492 -0.0104594 -0.00354263 -0.5 -2.15 -0.8 1.6865e-06 -1.86909e-06 -3.83195e-07 0 -7.75 -0.2 -8.83058 7.28298 1.08521 1.13687e-13 -3.8 0 -0.0285398 -0.8538 0.212473 0 -3.4 0 -17.9964 -0.0109937 0.0220225 -0.75 -1.75 -1.85 1.6865e-06 -1.86909e-06 -3.83195e-07 -1.13687e-13 -7.15 -1 -32.7782 -9.69953 -1.28113 0 -3 0 -0.0954489 -0.051496 -0.0443393 0 -2.35 1.13687e-13 0.000117997 0.126537 -0.043966 -5 17 -1.13687e-13 3.68421 11.2478 6.68354 -6.45 0 0 -0.883322 -0.724277 -2.31072 -6.45 5.68434e-14 1.13687e-13 -45.0564 26.2893 -32.684 0 -32.4 -2 62.9322 -58.3812 69.0033 0 -25.65 2 3.13748 -28.3543 31.9412 0.5 -1.5 2.65 52.8449 39.9652 157.27 0 -3.8 3.7 0.563171 -2.57049 -0.39031 -2.27374e-13 -3 2.7 0.126494 22.5416 -0.114227 -5.68434e-14 -1.9 1.6 -2.5996e-06 -6.09467e-07 3.67161e-06 1.13687e-13 -8.3 1.9 0.871394 7.98554 -0.0944987 5.68434e-14 -4.5 2.27374e-13 26.9452 12.1361 0.542909 0 -3.4 0 23.2329 0.0113968 0.00358665 0.25 -2.2 0.4 -2.5996e-06 -6.09467e-07 3.67161e-06 -5.68434e-14 -8.3 1 13.5991 21.0608 -3.501 0 -4.65 0 30.6039 9.47975 0.219581 0 -3.3 -1.13687e-13 24.0237 0.00354989 -0.0132965 0.5 -2.15 -0.8 -2.5996e-06 -6.09467e-07 3.67161e-06 -5.68434e-14 -7.75 -0.2 42.031 20.0153 -10.3192 -1.13687e-13 -3.8 0 29.3218 17.9882 1.51007 -1.13687e-13 -3.4 0 27.5004 -0.0277785 -0.000200346 0.75 -1.75 -1.85 -2.5996e-06 -6.09467e-07 3.67161e-06 0 -7.15 -1 62.2884 16.1712 -15.0543 -1.13687e-13 -3 0 18.5426 17.4931 2.31804 0 -2.35 2.27374e-13 24.2763 -0.0307225 0.00695589 8 0 5.68434e-14 1.15593 -2.88349 3.67534 0 -45 -1 -3.06109 2.96515 1.76437 0 -41 -2 0.343191 -0.149279 -24.7203 2.27374e-13 -7.5 12.5 -0.00617746 -0.00309886 0.00849529 -2.27374e-13 2.84217e-14 4 0.673396 3.27061 24.7998 -8 0 -1.13687e-13 -3.81066 -1.2524 -15.6598 2.27374e-13 -45 -1 -10.5581 2.1824 -0.336416 2.27374e-13 -41 -2 12.5021 0.711932 -10.0958 0 -7.5 12.5 -0.000830315 -0.00212229 -0.00143281 0 0 4 -8.25573 3.06104 29.7769 
